<svg version="1.1" id="Layer_1" xmlns="http://www.w3.org/2000/svg" xmlns:xlink="http://www.w3.org/1999/xlink" x="0px" y="0px"
	 width="100%" viewBox="0 0 851 254" enable-background="new 0 0 851 254" xml:space="preserve">
<path fill="#FEFEFE" opacity="1.000000" stroke="none" 
	d="
M608.000000,255.000000 
	C405.379059,255.000000 203.258133,255.000000 1.068595,255.000000 
	C1.068595,170.398270 1.068595,85.796455 1.068595,1.097322 
	C284.666656,1.097322 568.333313,1.097322 851.972351,1.097322 
	C851.972351,85.741837 851.972351,170.370926 851.972351,255.000000 
	C770.796448,255.000000 689.648254,255.000000 608.000000,255.000000 
M216.757309,142.314392 
	C216.757309,142.314392 216.763916,142.386703 216.515274,143.146698 
	C217.000595,144.532608 217.485931,145.918518 218.400970,148.531509 
	C222.636292,140.906693 224.624069,134.202896 225.359177,126.691391 
	C225.277908,126.113319 225.196640,125.535248 225.271545,124.199867 
	C225.300476,122.155273 225.329422,120.110687 225.666962,117.265221 
	C225.215454,114.533928 224.763962,111.802635 224.346725,108.221886 
	C222.498352,100.883621 220.649979,93.545357 218.457047,84.839149 
	C215.299118,88.456200 213.407928,90.622322 211.656570,92.628296 
	C213.316895,98.581741 215.038330,104.754364 216.474670,111.698685 
	C216.700684,114.804520 216.926712,117.910355 217.010269,121.674637 
	C217.022110,122.122093 217.033966,122.569542 216.627029,123.410263 
	C216.674332,123.944031 216.721619,124.477806 216.431198,125.798492 
	C215.991028,128.543961 215.550873,131.289429 214.595535,134.506790 
	C214.328812,135.645569 214.062103,136.784332 213.371887,138.388550 
	C214.507812,139.674133 215.643753,140.959732 216.757309,142.314392 
M137.071976,142.768570 
	C138.301178,144.182190 139.530380,145.595810 140.926727,147.708862 
	C141.881470,151.336060 144.190323,152.089111 147.378555,150.607620 
	C151.278687,148.795349 155.123993,146.865082 159.695389,144.895706 
	C163.303818,142.658508 166.912247,140.421326 170.941452,138.105301 
	C171.191864,137.952408 171.463776,137.875214 172.495193,137.965088 
	C176.433395,138.054001 173.690674,140.646606 173.630219,142.621490 
	C170.358749,144.712372 167.087265,146.803253 163.108978,148.989609 
	C157.058945,151.631042 151.008911,154.272476 144.167969,156.923172 
	C140.977783,157.806839 137.768097,158.626297 134.601761,159.588409 
	C129.131348,161.250626 128.174561,164.214401 132.938293,167.293533 
	C140.920120,172.452728 149.580154,176.562668 158.465164,181.621201 
	C165.647186,183.454575 172.829224,185.287949 180.710693,187.494339 
	C183.647522,187.911758 186.572540,188.533829 189.523621,188.703979 
	C195.665787,189.058136 197.367508,187.148422 196.396179,181.205994 
	C196.001572,178.791840 195.353378,176.419144 194.938446,173.333801 
	C194.921951,172.632080 194.905457,171.930374 195.009659,170.429443 
	C194.591888,168.599396 194.174103,166.769333 193.447205,164.185944 
	C193.348831,163.109909 193.250458,162.033875 193.600723,160.605392 
	C193.280716,159.714294 192.960693,158.823181 192.293015,157.246460 
	C192.226776,156.486938 192.160538,155.727402 192.505661,154.718933 
	C192.261307,154.122116 192.016953,153.525284 191.411682,152.199326 
	C191.307465,151.124573 191.203232,150.049820 191.563828,148.623657 
	C191.230988,147.727234 190.898148,146.830795 190.249146,145.240616 
	C190.197601,144.485397 190.146057,143.730194 190.640274,142.416351 
	C191.555801,140.218338 192.471329,138.020309 193.734512,136.424362 
	C194.160492,137.947952 194.586487,139.471558 194.938110,141.853149 
	C195.274063,144.906738 195.610031,147.960327 195.527298,151.273926 
	C195.788589,151.872604 196.049881,152.471283 196.659592,153.797867 
	C196.777786,154.863525 196.895996,155.929199 196.583755,157.236511 
	C196.802628,157.846741 197.021500,158.456970 197.697067,159.698914 
	C201.193436,159.480682 204.749542,159.588104 208.170776,158.960403 
	C212.292755,158.204117 213.711441,155.561447 211.758484,151.591766 
	C209.042343,146.070740 206.291931,140.566589 203.599396,134.519821 
	C203.210770,133.950500 202.822128,133.381180 202.260757,132.096756 
	C199.576981,126.056419 196.893188,120.016090 194.179764,113.227516 
	C192.648178,111.032524 191.116577,108.837532 189.584991,106.642540 
	C187.423859,108.422531 185.253174,110.191238 183.116440,112.000061 
	C182.903915,112.179977 182.898376,112.604431 182.231400,113.253929 
	C177.119415,118.751976 172.007431,124.250015 166.274979,130.042496 
	C162.181168,133.023621 158.087341,136.004745 153.276764,138.998581 
	C152.197067,139.380936 151.117371,139.763275 149.921387,139.425964 
	C146.391937,137.060867 142.876190,134.674316 139.295197,132.390060 
	C139.103317,132.267654 138.362518,133.005783 137.183533,133.244690 
	C136.083069,132.935944 134.982620,132.627197 133.884018,131.500763 
	C133.613586,129.885635 133.343170,128.270508 133.838959,126.832848 
	C135.889206,127.174057 137.939468,127.515266 140.739532,127.989105 
	C141.496262,127.938766 142.252991,127.888428 143.777161,127.952812 
	C156.491058,125.878616 163.341782,112.783813 157.512344,101.707497 
	C154.025314,95.081902 148.285172,92.033722 141.023605,90.579247 
	C141.015945,89.052986 141.008270,87.526733 141.876236,85.830009 
	C144.223206,85.683128 146.570160,85.536247 149.780441,85.679726 
	C151.883804,85.561630 153.987183,85.443535 156.979553,85.571785 
	C168.330872,85.441826 179.682205,85.311867 191.801331,85.448036 
	C195.926117,85.506821 200.053955,85.683876 204.174484,85.577553 
	C206.443741,85.518997 209.085541,85.473022 208.952118,81.209686 
	C209.267944,78.272118 207.616486,77.252670 204.107895,77.002319 
	C200.183090,77.085907 196.258301,77.169495 191.360260,77.156487 
	C173.260132,77.223312 155.160019,77.290131 137.025986,76.434624 
	C136.990479,75.211861 136.954971,73.989098 137.356567,72.404785 
	C137.901855,72.245544 138.447128,72.086304 139.922623,72.060562 
	C161.189957,71.998611 182.457291,71.940727 203.724594,71.870079 
	C206.726044,71.860107 209.731552,71.429825 209.825256,67.625854 
	C209.924515,63.597126 207.056564,62.947208 203.684189,62.969921 
	C183.414154,63.106449 163.143387,63.138962 142.873535,63.292831 
	C140.576065,63.310272 138.282715,63.868126 135.203979,64.121346 
	C118.334030,66.928123 106.870071,76.636551 99.184914,92.329971 
	C95.577782,100.926125 94.919006,109.835640 96.390381,119.528755 
	C96.641533,120.004707 96.892685,120.480667 97.096909,121.711136 
	C99.635590,131.876114 104.115303,140.901337 112.616264,147.435089 
	C116.298248,150.265030 117.937767,149.614990 119.929977,144.344147 
	C119.025146,143.069412 118.120316,141.794662 117.222267,140.237106 
	C117.222267,140.237106 117.262383,139.957062 117.706017,139.386337 
	C118.158302,137.581604 118.610588,135.776855 119.487518,134.000443 
	C119.487518,134.000443 119.912277,134.027008 120.036827,134.723175 
	C125.688889,137.179504 131.340942,139.635834 137.071976,142.768570 
M131.533005,190.893631 
	C148.537323,194.761597 160.144882,194.752533 167.636124,190.525635 
	C161.125687,188.353683 155.146423,185.901077 148.934784,184.429184 
	C143.819244,183.217026 138.428223,183.167404 132.586395,182.208527 
	C131.492645,181.808243 130.401520,181.400574 129.304749,181.008759 
	C95.178078,168.817291 77.719284,133.074203 88.831711,98.541519 
	C95.083145,79.114685 108.152534,66.052246 126.898766,57.182827 
	C134.693176,55.723694 142.453491,54.023476 150.297409,52.914406 
	C153.840179,52.413490 154.084534,50.550224 154.139252,47.815281 
	C154.192596,45.147552 153.393570,43.821617 150.454880,43.907913 
	C140.905304,44.188347 131.641068,45.636230 122.264755,50.015881 
	C87.234245,65.278198 69.266594,101.378563 79.184845,138.110947 
	C86.466858,165.080017 103.853516,182.750534 131.533005,190.893631 
M756.344849,155.653534 
	C756.457214,157.084015 756.569641,158.514511 756.496216,160.478119 
	C756.995300,160.617981 757.494385,160.757843 758.917419,161.055420 
	C763.705322,161.055420 768.493225,161.055420 773.390137,161.055420 
	C773.390137,132.085678 773.390137,103.572815 773.390137,75.102951 
	C767.205811,75.102951 761.459900,75.102951 755.130005,75.102951 
	C755.130005,84.955055 755.130005,94.485687 755.130005,104.342499 
	C743.929932,97.723625 736.266663,96.180191 727.310181,98.509178 
	C711.098755,102.724678 701.748169,119.395699 705.436462,137.507355 
	C708.969055,154.854523 723.824585,164.710236 742.705505,161.828949 
	C743.297485,160.905548 743.889465,159.982132 745.005066,159.744949 
	C748.317932,158.106674 751.630859,156.468399 755.712646,154.863113 
	C755.968140,154.840012 756.223633,154.816910 756.344849,155.653534 
M502.429443,134.499725 
	C502.429443,150.597290 502.429443,166.694870 502.429443,183.048004 
	C508.822784,183.048004 514.730469,183.048004 521.175049,183.048004 
	C521.175049,173.944290 521.175049,165.089340 521.175049,155.918045 
	C535.871338,165.254425 551.114990,164.208420 561.663269,153.517731 
	C572.134338,142.905304 574.071167,124.235878 565.930542,111.426346 
	C560.994934,103.660065 553.817261,99.219055 544.744141,97.969215 
	C535.927429,96.754692 527.719666,98.352081 520.510925,104.842262 
	C520.192444,102.236343 519.996948,100.636589 519.783203,98.887253 
	C513.949036,98.887253 508.363953,98.887253 502.430603,98.887253 
	C502.430603,110.613106 502.430603,122.056450 502.429443,134.499725 
M268.694824,143.887451 
	C278.193939,143.877380 287.695435,143.983200 297.190674,143.786026 
	C300.007904,143.727524 301.419830,144.641190 302.325958,147.252747 
	C303.635040,151.025665 305.166260,154.736496 306.865570,158.350204 
	C307.398895,159.484344 308.746552,160.970779 309.776367,161.014908 
	C315.705444,161.269073 321.650970,161.138748 328.094849,161.138748 
	C327.238495,159.004959 326.680328,157.468063 326.015289,155.978882 
	C316.638977,134.983307 307.266724,113.985847 297.846405,93.009972 
	C295.752075,88.346703 294.618195,81.960320 290.965485,79.648720 
	C287.245758,77.294724 280.948792,78.734261 275.814392,79.056290 
	C274.169464,79.159462 271.814911,80.631638 271.168884,82.090340 
	C260.036224,107.227654 249.116058,132.459122 238.172913,157.680191 
	C237.760529,158.630615 237.585541,159.684052 237.198273,161.047348 
	C239.007980,161.047348 240.330978,161.062149 241.653549,161.044693 
	C246.310928,160.983231 252.035385,162.538559 255.324051,160.382584 
	C258.585938,158.244141 259.716644,152.470840 261.177124,148.090012 
	C262.349762,144.572586 264.282166,143.293198 268.694824,143.887451 
M667.161926,161.950287 
	C689.853516,159.790146 702.298950,138.995926 695.245056,118.694061 
	C690.226013,104.248528 676.191895,96.460312 658.272522,97.817581 
	C635.844177,99.516373 622.163147,121.489937 630.525879,142.382446 
	C636.020020,156.108414 648.184631,162.798019 667.161926,161.950287 
M479.060303,104.407913 
	C467.036072,95.257179 441.774933,95.742889 430.225891,105.489090 
	C431.997192,109.601303 433.791565,113.767082 435.711273,118.223831 
	C443.074005,113.369102 450.582245,111.797363 458.604492,113.014328 
	C465.075043,113.995903 468.179688,118.192207 467.185455,124.773155 
	C463.623138,124.773155 459.981201,124.617813 456.357910,124.811485 
	C451.556244,125.068138 446.661072,125.100716 441.998505,126.114517 
	C432.660095,128.145020 427.373810,134.561447 427.195160,143.082260 
	C427.008606,151.980042 432.056671,158.587357 441.427094,161.077759 
	C451.385406,163.724411 460.771790,162.737411 468.892792,154.974045 
	C469.087921,157.259323 469.226746,158.885269 469.384888,160.737411 
	C475.109100,160.737411 480.652893,160.737411 486.048004,160.737411 
	C486.048004,146.314911 486.561035,132.178619 485.750977,118.118568 
	C485.491150,113.609047 481.735352,109.300941 479.060303,104.407913 
M337.370422,131.195160 
	C341.872955,132.807938 346.303101,134.681229 350.899017,135.957779 
	C355.208008,137.154633 359.793701,137.396179 364.048157,138.727554 
	C365.680725,139.238464 367.947723,141.782272 367.755066,143.076645 
	C367.491943,144.844055 365.420868,147.132629 363.645386,147.701691 
	C360.896606,148.582687 357.630127,148.783524 354.783203,148.234802 
	C348.196381,146.965286 341.729492,145.073349 334.824249,143.335724 
	C333.288086,147.035278 331.540588,151.243851 329.621643,155.865280 
	C344.179626,162.417130 358.688782,164.991379 373.481812,159.213959 
	C377.613495,157.600342 381.723389,153.822479 383.987183,149.951859 
	C389.541443,140.455368 385.036407,129.966583 374.201874,126.460556 
	C368.069183,124.476028 361.540588,123.732399 355.215149,122.318626 
	C352.104950,121.623482 348.480652,120.889877 348.933716,116.651993 
	C349.362732,112.639336 352.973572,112.253792 356.154602,111.925858 
	C358.131104,111.722107 360.191071,111.590935 362.131683,111.915993 
	C367.658264,112.841682 373.142914,114.017883 378.968933,115.159134 
	C380.506378,111.297951 382.138855,107.198051 383.988953,102.551697 
	C369.634888,97.331352 355.538757,94.960365 341.549316,101.602623 
	C329.656830,107.249229 327.616882,121.576591 337.370422,131.195160 
M583.096924,153.420593 
	C583.096924,155.855865 583.096924,158.291122 583.096924,160.740662 
	C589.614563,160.740662 595.479797,160.740662 601.695129,160.740662 
	C601.695129,150.384308 601.533630,140.419846 601.739990,130.463013 
	C601.952148,120.228058 607.752686,114.561630 617.996704,114.123497 
	C619.626099,114.053810 621.260986,114.113731 622.870728,114.113731 
	C622.870728,108.552971 622.870728,103.360527 622.870728,98.104225 
	C614.222900,97.190933 607.429260,100.467010 601.200500,106.233185 
	C601.000427,103.307693 600.856018,101.196449 600.715332,99.140137 
	C594.681580,99.140137 588.981750,99.140137 583.084656,99.140137 
	C583.084656,117.192268 583.084656,134.817184 583.096924,153.420593 
M415.024536,108.534752 
	C415.024536,105.437302 415.024536,102.339844 415.024536,99.191605 
	C408.676208,99.191605 402.956024,99.191605 397.032196,99.191605 
	C397.032196,119.861916 397.032196,140.215714 397.032196,160.711258 
	C403.153687,160.711258 409.004791,160.711258 415.024139,160.711258 
	C415.024139,143.393295 415.024139,126.458496 415.024536,108.534752 
M417.584290,81.154640 
	C417.171844,74.325066 414.770050,71.044113 409.287567,69.820862 
	C403.644775,68.561852 398.413361,70.358742 396.145935,74.481438 
	C394.163940,78.085205 393.912689,81.839737 396.199280,85.380096 
	C398.968872,89.668320 403.280457,90.696373 408.000336,90.077950 
	C412.839264,89.443939 416.398651,87.053917 417.584290,81.154640 
z"/>
<path fill="#203357" opacity="1.000000" stroke="none" 
	d="
M502.430023,133.999756 
	C502.430603,122.056450 502.430603,110.613106 502.430603,98.887253 
	C508.363953,98.887253 513.949036,98.887253 519.783203,98.887253 
	C519.996948,100.636589 520.192444,102.236343 520.510925,104.842262 
	C527.719666,98.352081 535.927429,96.754692 544.744141,97.969215 
	C553.817261,99.219055 560.994934,103.660065 565.930542,111.426346 
	C574.071167,124.235878 572.134338,142.905304 561.663269,153.517731 
	C551.114990,164.208420 535.871338,165.254425 521.175049,155.918045 
	C521.175049,165.089340 521.175049,173.944290 521.175049,183.048004 
	C514.730469,183.048004 508.822784,183.048004 502.429443,183.048004 
	C502.429443,166.694870 502.429443,150.597290 502.430023,133.999756 
M537.319519,147.133850 
	C547.706543,145.747574 553.116760,138.772812 552.214355,127.931732 
	C551.434082,118.557854 544.829834,112.611832 535.625183,112.996132 
	C526.768066,113.365921 520.848267,120.040695 520.794800,129.717865 
	C520.736816,140.215042 526.400574,146.515945 537.319519,147.133850 
z"/>
<path fill="#1F3156" opacity="1.000000" stroke="none" 
	d="
M754.943726,154.830124 
	C751.630859,156.468399 748.317932,158.106674 744.503174,159.371979 
	C743.326721,159.916046 742.652100,160.833054 741.977539,161.750061 
	C723.824585,164.710236 708.969055,154.854523 705.436462,137.507355 
	C701.748169,119.395699 711.098755,102.724678 727.310181,98.509178 
	C736.266663,96.180191 743.929932,97.723625 755.130005,104.342499 
	C755.130005,94.485687 755.130005,84.955055 755.130005,75.102951 
	C761.459900,75.102951 767.205811,75.102951 773.390137,75.102951 
	C773.390137,103.572815 773.390137,132.085678 773.390137,161.055420 
	C768.493225,161.055420 763.705322,161.055420 758.354614,160.787186 
	C757.421814,160.327637 757.051941,160.136322 756.682007,159.945007 
	C756.569641,158.514511 756.457214,157.084015 756.561340,155.029556 
	C756.439758,154.068909 756.101685,153.732239 755.763550,153.395569 
	C755.490295,153.873749 755.216980,154.351929 754.943726,154.830124 
M743.092896,147.804703 
	C744.072021,151.501083 746.250366,151.406494 749.160095,149.931915 
	C752.728821,148.123352 751.685120,145.432083 751.128174,142.066376 
	C755.815613,136.418304 756.332092,129.971237 754.267639,123.291901 
	C752.068787,116.178207 746.365112,112.575172 738.599609,112.870163 
	C731.652100,113.134079 725.941528,117.763634 724.209839,124.535942 
	C720.741577,138.099533 728.386963,147.277557 743.092896,147.804703 
z"/>
<path fill="#203257" opacity="1.000000" stroke="none" 
	d="
M268.223572,143.884552 
	C264.282166,143.293198 262.349762,144.572586 261.177124,148.090012 
	C259.716644,152.470840 258.585938,158.244141 255.324051,160.382584 
	C252.035385,162.538559 246.310928,160.983231 241.653549,161.044693 
	C240.330978,161.062149 239.007980,161.047348 237.198273,161.047348 
	C237.585541,159.684052 237.760529,158.630615 238.172913,157.680191 
	C249.116058,132.459122 260.036224,107.227654 271.168884,82.090340 
	C271.814911,80.631638 274.169464,79.159462 275.814392,79.056290 
	C280.948792,78.734261 287.245758,77.294724 290.965485,79.648720 
	C294.618195,81.960320 295.752075,88.346703 297.846405,93.009972 
	C307.266724,113.985847 316.638977,134.983307 326.015289,155.978882 
	C326.680328,157.468063 327.238495,159.004959 328.094849,161.138748 
	C321.650970,161.138748 315.705444,161.269073 309.776367,161.014908 
	C308.746552,160.970779 307.398895,159.484344 306.865570,158.350204 
	C305.166260,154.736496 303.635040,151.025665 302.325958,147.252747 
	C301.419830,144.641190 300.007904,143.727524 297.190674,143.786026 
	C287.695435,143.983200 278.193939,143.877380 268.223572,143.884552 
M272.836426,121.269661 
	C271.820679,123.676796 270.804932,126.083923 269.648529,128.824341 
	C278.193268,128.824341 286.058441,128.824341 294.552521,128.824341 
	C290.404175,118.603081 286.465302,108.897964 282.068207,98.063774 
	C278.742981,106.414932 275.929413,113.481102 272.836426,121.269661 
z"/>
<path fill="#203257" opacity="1.000000" stroke="none" 
	d="
M666.699707,161.985764 
	C648.184631,162.798019 636.020020,156.108414 630.525879,142.382446 
	C622.163147,121.489937 635.844177,99.516373 658.272522,97.817581 
	C676.191895,96.460312 690.226013,104.248528 695.245056,118.694061 
	C702.298950,138.995926 689.853516,159.790146 666.699707,161.985764 
M665.111450,112.974129 
	C663.947388,112.957565 662.778198,112.861748 661.620056,112.937019 
	C652.495789,113.529961 646.628906,120.738853 646.942322,130.931290 
	C647.244751,140.763596 653.583496,147.205399 662.849365,147.096985 
	C671.075378,147.000732 677.108459,141.439026 678.201477,132.944214 
	C679.518250,122.710503 675.288513,115.845825 665.111450,112.974129 
z"/>
<path fill="#203256" opacity="1.000000" stroke="none" 
	d="
M479.319641,104.654297 
	C481.735352,109.300941 485.491150,113.609047 485.750977,118.118568 
	C486.561035,132.178619 486.048004,146.314911 486.048004,160.737411 
	C480.652893,160.737411 475.109100,160.737411 469.384888,160.737411 
	C469.226746,158.885269 469.087921,157.259323 468.892792,154.974045 
	C460.771790,162.737411 451.385406,163.724411 441.427094,161.077759 
	C432.056671,158.587357 427.008606,151.980042 427.195160,143.082260 
	C427.373810,134.561447 432.660095,128.145020 441.998505,126.114517 
	C446.661072,125.100716 451.556244,125.068138 456.357910,124.811485 
	C459.981201,124.617813 463.623138,124.773155 467.185455,124.773155 
	C468.179688,118.192207 465.075043,113.995903 458.604492,113.014328 
	C450.582245,111.797363 443.074005,113.369102 435.711273,118.223831 
	C433.791565,113.767082 431.997192,109.601303 430.225891,105.489090 
	C441.774933,95.742889 467.036072,95.257179 479.319641,104.654297 
M453.221039,135.274551 
	C449.555542,135.811584 445.989471,136.989029 445.630249,141.169983 
	C445.445160,143.324463 446.444214,146.198151 447.941193,147.751068 
	C451.057373,150.983688 458.811676,150.575455 463.438385,147.545532 
	C467.924927,144.607361 468.956268,140.474274 467.719543,135.207077 
	C463.034943,135.207077 458.562836,135.207077 453.221039,135.274551 
z"/>
<path fill="#213357" opacity="1.000000" stroke="none" 
	d="
M337.074249,130.982529 
	C327.616882,121.576591 329.656830,107.249229 341.549316,101.602623 
	C355.538757,94.960365 369.634888,97.331352 383.988953,102.551697 
	C382.138855,107.198051 380.506378,111.297951 378.968933,115.159134 
	C373.142914,114.017883 367.658264,112.841682 362.131683,111.915993 
	C360.191071,111.590935 358.131104,111.722107 356.154602,111.925858 
	C352.973572,112.253792 349.362732,112.639336 348.933716,116.651993 
	C348.480652,120.889877 352.104950,121.623482 355.215149,122.318626 
	C361.540588,123.732399 368.069183,124.476028 374.201874,126.460556 
	C385.036407,129.966583 389.541443,140.455368 383.987183,149.951859 
	C381.723389,153.822479 377.613495,157.600342 373.481812,159.213959 
	C358.688782,164.991379 344.179626,162.417130 329.621643,155.865280 
	C331.540588,151.243851 333.288086,147.035278 334.824249,143.335724 
	C341.729492,145.073349 348.196381,146.965286 354.783203,148.234802 
	C357.630127,148.783524 360.896606,148.582687 363.645386,147.701691 
	C365.420868,147.132629 367.491943,144.844055 367.755066,143.076645 
	C367.947723,141.782272 365.680725,139.238464 364.048157,138.727554 
	C359.793701,137.396179 355.208008,137.154633 350.899017,135.957779 
	C346.303101,134.681229 341.872955,132.807938 337.074249,130.982529 
z"/>
<path fill="#7CC6B1" opacity="1.000000" stroke="none" 
	d="
M126.141769,57.353199 
	C108.152534,66.052246 95.083145,79.114685 88.831711,98.541519 
	C77.719284,133.074203 95.178078,168.817291 129.304749,181.008759 
	C130.401520,181.400574 131.492645,181.808243 132.800018,182.815628 
	C132.316071,185.791611 131.618515,188.160492 130.920975,190.529373 
	C103.853516,182.750534 86.466858,165.080017 79.184845,138.110947 
	C69.266594,101.378563 87.234245,65.278198 122.633919,50.352287 
	C124.049316,52.910198 125.095543,55.131699 126.141769,57.353199 
z"/>
<path fill="#233558" opacity="1.000000" stroke="none" 
	d="
M583.090820,152.931351 
	C583.084656,134.817184 583.084656,117.192268 583.084656,99.140137 
	C588.981750,99.140137 594.681580,99.140137 600.715332,99.140137 
	C600.856018,101.196449 601.000427,103.307693 601.200500,106.233185 
	C607.429260,100.467010 614.222900,97.190933 622.870728,98.104225 
	C622.870728,103.360527 622.870728,108.552971 622.870728,114.113731 
	C621.260986,114.113731 619.626099,114.053810 617.996704,114.123497 
	C607.752686,114.561630 601.952148,120.228058 601.739990,130.463013 
	C601.533630,140.419846 601.695129,150.384308 601.695129,160.740662 
	C595.479797,160.740662 589.614563,160.740662 583.096924,160.740662 
	C583.096924,158.291122 583.096924,155.855865 583.090820,152.931351 
z"/>
<path fill="#213357" opacity="1.000000" stroke="none" 
	d="
M415.024353,109.029228 
	C415.024139,126.458496 415.024139,143.393295 415.024139,160.711258 
	C409.004791,160.711258 403.153687,160.711258 397.032196,160.711258 
	C397.032196,140.215714 397.032196,119.861916 397.032196,99.191605 
	C402.956024,99.191605 408.676208,99.191605 415.024536,99.191605 
	C415.024536,102.339844 415.024536,105.437302 415.024353,109.029228 
z"/>
<path fill="#E84B31" opacity="1.000000" stroke="none" 
	d="
M144.958878,156.913910 
	C151.008911,154.272476 157.058945,151.631042 163.750397,149.146896 
	C166.600296,152.683533 168.692688,156.148972 171.093201,159.385880 
	C171.750244,160.271866 173.301834,160.824432 174.493942,160.925034 
	C179.034744,161.308136 183.265747,160.751251 186.646027,157.013763 
	C187.712463,155.834625 189.757248,155.540298 191.537323,154.884277 
	C191.720352,154.927521 192.094315,154.967880 192.094299,154.967880 
	C192.160538,155.727402 192.226776,156.486938 192.346985,157.896210 
	C192.651337,159.349930 192.901718,160.153885 193.152100,160.957840 
	C193.250458,162.033875 193.348831,163.109909 193.392609,164.924591 
	C193.855011,167.518372 194.371994,169.373505 194.888977,171.228653 
	C194.905457,171.930374 194.921951,172.632080 194.501801,173.667572 
	C191.927078,174.989075 189.633057,175.743164 187.698074,177.035049 
	C186.010056,178.162048 184.541107,179.756577 183.315125,181.398270 
	C182.006287,183.150970 181.095688,185.201050 180.011246,187.121323 
	C172.829224,185.287949 165.647186,183.454575 158.260269,180.987915 
	C158.928452,178.077103 159.818619,175.805923 160.670441,173.520493 
	C161.844070,170.371643 160.305313,168.552399 157.390884,168.343887 
	C150.086807,167.821320 146.041336,164.054199 144.958878,156.913910 
z"/>
<path fill="#EBA43A" opacity="1.000000" stroke="none" 
	d="
M139.989716,127.856476 
	C137.939468,127.515266 135.889206,127.174057 133.256424,126.495255 
	C129.766876,122.269592 125.634888,118.785339 124.193848,114.414001 
	C120.583420,103.461937 127.837975,94.139999 141.067062,91.320580 
	C148.285172,92.033722 154.025314,95.081902 157.512344,101.707497 
	C163.341782,112.783813 156.491058,125.878616 143.397308,127.523361 
	C143.946106,124.232948 144.874786,121.371994 146.035538,118.274719 
	C151.094406,113.285835 151.617905,107.196175 147.539642,103.241753 
	C143.783920,99.600067 138.067184,99.863724 134.265198,103.853951 
	C130.014084,108.315544 131.502899,114.434822 137.991425,119.540985 
	C138.659790,122.569832 139.324753,125.213158 139.989716,127.856476 
z"/>
<path fill="#E9AA44" opacity="1.000000" stroke="none" 
	d="
M135.987457,64.175400 
	C138.282715,63.868126 140.576065,63.310272 142.873535,63.292831 
	C163.143387,63.138962 183.414154,63.106449 203.684189,62.969921 
	C207.056564,62.947208 209.924515,63.597126 209.825256,67.625854 
	C209.731552,71.429825 206.726044,71.860107 203.724594,71.870079 
	C182.457291,71.940727 161.189957,71.998611 139.418961,71.643127 
	C137.939346,68.875595 136.963394,66.525497 135.987457,64.175400 
z"/>
<path fill="#E9662E" opacity="1.000000" stroke="none" 
	d="
M150.037674,140.145630 
	C151.117371,139.763275 152.197067,139.380936 153.849976,139.257675 
	C159.543854,139.245819 166.319611,133.938797 166.895447,129.748062 
	C172.007431,124.250015 177.119415,118.751976 182.878052,113.155823 
	C183.927017,113.329247 184.563858,113.517029 184.695389,113.885284 
	C185.997818,117.531952 187.327682,120.191467 190.654724,115.191795 
	C191.205322,114.364365 192.993271,114.360321 194.209396,113.975769 
	C196.893188,120.016090 199.576981,126.056419 202.037079,132.613495 
	C201.546692,133.744537 201.279999,134.358841 200.899048,135.200455 
	C200.513016,135.623184 200.241241,135.818588 199.621262,135.977768 
	C197.197433,134.957428 195.121826,133.973312 192.821167,132.714386 
	C188.635468,128.058075 185.680084,127.548241 181.123352,130.745544 
	C177.914108,132.997345 174.873215,135.489090 171.757156,137.873718 
	C171.463776,137.875214 171.191864,137.952408 170.272934,138.094315 
	C166.852020,138.514771 164.041306,138.726486 161.363113,139.437424 
	C158.498123,140.197937 157.119736,142.000641 158.992996,144.985825 
	C155.123993,146.865082 151.278687,148.795349 147.378555,150.607620 
	C144.190323,152.089111 141.881470,151.336060 141.070190,147.093750 
	C144.154984,144.367630 147.096329,142.256622 150.037674,140.145630 
z"/>
<path fill="#E8A235" opacity="1.000000" stroke="none" 
	d="
M148.917130,85.389374 
	C146.570160,85.536247 144.223206,85.683128 141.030518,85.856567 
	C135.178406,87.945343 130.172012,90.007553 124.876083,91.885590 
	C122.983353,90.102531 121.380165,88.503632 119.938957,86.601471 
	C125.753929,83.317780 131.406906,80.337372 137.059891,77.356949 
	C155.160019,77.290131 173.260132,77.223312 191.726074,77.661819 
	C191.739105,80.505409 191.386322,82.843651 191.033524,85.181900 
	C179.682205,85.311867 168.330872,85.441826 156.503555,85.089119 
	C156.075806,79.789040 152.801529,80.265648 149.309753,80.304817 
	C149.165787,82.169235 149.041458,83.779305 148.917130,85.389374 
z"/>
<path fill="#FBF8F0" opacity="1.000000" stroke="none" 
	d="
M137.042938,76.895790 
	C131.406906,80.337372 125.753929,83.317780 119.645897,86.752899 
	C107.480362,98.997849 105.396523,118.878777 119.062866,133.972122 
	C118.610588,135.776855 118.158302,137.581604 117.135109,139.601135 
	C110.292694,134.124680 106.613953,126.939362 104.461792,118.401932 
	C105.013443,110.383972 105.591362,102.823318 106.505753,95.170883 
	C107.664574,93.858513 108.492836,92.641853 109.308311,91.416687 
	C115.960823,81.422081 124.618965,74.398483 136.919479,72.766335 
	C136.954971,73.989098 136.990479,75.211861 137.042938,76.895790 
z"/>
<path fill="#E95336" opacity="1.000000" stroke="none" 
	d="
M191.354279,154.841019 
	C189.757248,155.540298 187.712463,155.834625 186.646027,157.013763 
	C183.265747,160.751251 179.034744,161.308136 174.493942,160.925034 
	C173.301834,160.824432 171.750244,160.271866 171.093201,159.385880 
	C168.692688,156.148972 166.600296,152.683533 164.103821,149.099152 
	C167.087265,146.803253 170.358749,144.712372 174.173248,142.284149 
	C175.925842,141.104599 177.152405,140.285660 178.342255,139.416473 
	C187.020844,133.076828 187.018509,133.073624 190.094498,142.974976 
	C190.146057,143.730194 190.197601,144.485397 190.293762,145.898956 
	C190.591919,147.363235 190.845459,148.169144 191.098999,148.975067 
	C191.203232,150.049820 191.307465,151.124573 191.456787,152.864761 
	C191.452682,153.967133 191.403473,154.404083 191.354279,154.841019 
z"/>
<path fill="#E8A338" opacity="1.000000" stroke="none" 
	d="
M119.275192,133.986282 
	C105.396523,118.878777 107.480362,98.997849 119.483910,87.056175 
	C121.380165,88.503632 122.983353,90.102531 124.768456,92.217209 
	C123.767578,94.531540 122.601547,96.341362 121.399261,98.126770 
	C114.359604,108.580711 118.541199,126.703712 130.851410,132.144470 
	C129.546967,133.221222 128.567841,134.753448 127.522614,134.799957 
	C125.002289,134.912125 122.451050,134.329468 119.912277,134.027008 
	C119.912277,134.027008 119.487518,134.000443 119.275192,133.986282 
z"/>
<path fill="#233558" opacity="1.000000" stroke="none" 
	d="
M417.531250,81.537445 
	C416.398651,87.053917 412.839264,89.443939 408.000336,90.077950 
	C403.280457,90.696373 398.968872,89.668320 396.199280,85.380096 
	C393.912689,81.839737 394.163940,78.085205 396.145935,74.481438 
	C398.413361,70.358742 403.644775,68.561852 409.287567,69.820862 
	C414.770050,71.044113 417.171844,74.325066 417.531250,81.537445 
z"/>
<path fill="#E8A338" opacity="1.000000" stroke="none" 
	d="
M137.138031,72.585556 
	C124.618965,74.398483 115.960823,81.422081 109.308311,91.416687 
	C108.492836,92.641853 107.664574,93.858513 106.287415,94.868698 
	C103.738640,93.736046 101.744675,92.813805 99.750702,91.891556 
	C106.870071,76.636551 118.334030,66.928123 135.595718,64.148376 
	C136.963394,66.525497 137.939346,68.875595 138.953857,71.576378 
	C138.447128,72.086304 137.901855,72.245544 137.138031,72.585556 
z"/>
<path fill="#EB5337" opacity="1.000000" stroke="none" 
	d="
M144.563416,156.918549 
	C146.041336,164.054199 150.086807,167.821320 157.390884,168.343887 
	C160.305313,168.552399 161.844070,170.371643 160.670441,173.520493 
	C159.818619,175.805923 158.928452,178.077103 158.005066,180.734406 
	C149.580154,176.562668 140.920120,172.452728 132.938293,167.293533 
	C128.174561,164.214401 129.131348,161.250626 134.601761,159.588409 
	C137.768097,158.626297 140.977783,157.806839 144.563416,156.918549 
z"/>
<path fill="#FBF8ED" opacity="1.000000" stroke="none" 
	d="
M131.146683,131.924286 
	C118.541199,126.703712 114.359604,108.580711 121.399261,98.126770 
	C122.601547,96.341362 123.767578,94.531540 125.057999,92.401382 
	C130.172012,90.007553 135.178406,87.945343 140.592697,85.941803 
	C141.008270,87.526733 141.015945,89.052986 141.045334,90.949913 
	C127.837975,94.139999 120.583420,103.461937 124.193848,114.414001 
	C125.634888,118.785339 129.766876,122.269592 132.873322,126.406525 
	C133.343170,128.270508 133.613586,129.885635 133.538925,131.873688 
	C132.511444,132.139175 131.829071,132.031723 131.146683,131.924286 
z"/>
<path fill="#EA5736" opacity="1.000000" stroke="none" 
	d="
M199.969482,136.014008 
	C200.241241,135.818588 200.513016,135.623184 201.216980,135.207397 
	C202.284851,135.009766 202.920502,135.032486 203.556183,135.055222 
	C206.291931,140.566589 209.042343,146.070740 211.758484,151.591766 
	C213.711441,155.561447 212.292755,158.204117 208.170776,158.960403 
	C204.749542,159.588104 201.193436,159.480682 197.610184,159.128906 
	C197.353592,158.037552 197.183884,157.516205 197.014191,156.994858 
	C196.895996,155.929199 196.777786,154.863525 196.608612,153.173096 
	C196.353745,152.036850 196.149872,151.525375 195.945984,151.013916 
	C195.610031,147.960327 195.274063,144.906738 195.261566,141.218002 
	C197.046494,139.059906 198.507996,137.536957 199.969482,136.014008 
z"/>
<path fill="#80CBB6" opacity="1.000000" stroke="none" 
	d="
M131.226990,190.711502 
	C131.618515,188.160492 132.316071,185.791611 133.086456,183.012634 
	C138.428223,183.167404 143.819244,183.217026 148.934784,184.429184 
	C155.146423,185.901077 161.125687,188.353683 167.636124,190.525635 
	C160.144882,194.752533 148.537323,194.761597 131.226990,190.711502 
z"/>
<path fill="#80C8B4" opacity="1.000000" stroke="none" 
	d="
M126.520264,57.268013 
	C125.095543,55.131699 124.049316,52.910198 122.995224,50.312923 
	C131.641068,45.636230 140.905304,44.188347 150.454880,43.907913 
	C153.393570,43.821617 154.192596,45.147552 154.139252,47.815281 
	C154.084534,50.550224 153.840179,52.413490 150.297409,52.914406 
	C142.453491,54.023476 134.693176,55.723694 126.520264,57.268013 
z"/>
<path fill="#E8A338" opacity="1.000000" stroke="none" 
	d="
M104.488052,118.859238 
	C106.613953,126.939362 110.292694,134.124680 116.913292,139.886505 
	C117.262383,139.957062 117.222267,140.237106 117.161133,140.792847 
	C117.968102,142.577835 118.836220,143.807114 119.704330,145.036377 
	C117.937767,149.614990 116.298248,150.265030 112.616264,147.435089 
	C104.115303,140.901337 99.635590,131.876114 97.318161,121.228340 
	C97.773804,120.543816 97.932793,120.294075 98.415535,119.947754 
	C100.705803,119.552536 102.596931,119.205887 104.488052,118.859238 
z"/>
<path fill="#E8A235" opacity="1.000000" stroke="none" 
	d="
M104.461792,118.401932 
	C102.596931,119.205887 100.705803,119.552536 98.282486,119.724548 
	C97.284775,119.355835 96.819267,119.161751 96.353760,118.967667 
	C94.919006,109.835640 95.577782,100.926125 99.467804,92.110764 
	C101.744675,92.813805 103.738640,93.736046 105.950943,94.960480 
	C105.591362,102.823318 105.013443,110.383972 104.461792,118.401932 
z"/>
<path fill="#78C5AC" opacity="1.000000" stroke="none" 
	d="
M216.759766,110.926987 
	C215.038330,104.754364 213.316895,98.581741 211.656570,92.628296 
	C213.407928,90.622322 215.299118,88.456200 218.457047,84.839149 
	C220.649979,93.545357 222.498352,100.883621 223.948608,108.599640 
	C222.298309,109.330299 221.044937,109.678986 219.794357,110.037430 
	C218.781082,110.327850 217.771164,110.630020 216.759766,110.926987 
z"/>
<path fill="#E8583D" opacity="1.000000" stroke="none" 
	d="
M180.360962,187.307831 
	C181.095688,185.201050 182.006287,183.150970 183.315125,181.398270 
	C184.541107,179.756577 186.010056,178.162048 187.698074,177.035049 
	C189.633057,175.743164 191.927078,174.989075 194.442856,174.014465 
	C195.353378,176.419144 196.001572,178.791840 196.396179,181.205994 
	C197.367508,187.148422 195.665787,189.058136 189.523621,188.703979 
	C186.572540,188.533829 183.647522,187.911758 180.360962,187.307831 
z"/>
<path fill="#78C5AC" opacity="1.000000" stroke="none" 
	d="
M215.110718,134.034897 
	C215.550873,131.289429 215.991028,128.543961 216.807922,125.317703 
	C217.138367,124.230270 217.092102,123.623634 217.045837,123.016998 
	C217.033966,122.569542 217.022110,122.122093 217.438004,121.348740 
	C220.178940,121.578423 222.589172,122.505966 223.344986,118.869568 
	C223.426117,118.479126 224.659485,118.328156 225.358368,118.066101 
	C225.329422,120.110687 225.300476,122.155273 224.951233,124.714691 
	C224.742828,125.815521 224.854767,126.401535 224.966705,126.987549 
	C224.624069,134.202896 222.636292,140.906693 218.400970,148.531509 
	C217.485931,145.918518 217.000595,144.532608 216.994537,142.617401 
	C221.239639,138.060989 220.795135,136.546173 215.110718,134.034897 
z"/>
<path fill="#EAAF4D" opacity="1.000000" stroke="none" 
	d="
M191.417419,85.314972 
	C191.386322,82.843651 191.739105,80.505409 192.212708,77.710121 
	C196.258301,77.169495 200.183090,77.085907 204.560150,77.427307 
	C206.286224,79.220963 207.560043,80.589630 208.833878,81.958305 
	C209.085541,85.473022 206.443741,85.518997 204.174484,85.577553 
	C200.053955,85.683876 195.926117,85.506821 191.417419,85.314972 
z"/>
<path fill="#F5E9E3" opacity="1.000000" stroke="none" 
	d="
M190.367386,142.695663 
	C187.018509,133.073624 187.020844,133.076828 178.342255,139.416473 
	C177.152405,140.285660 175.925842,141.104599 174.377014,142.014053 
	C173.690674,140.646606 176.433395,138.054001 172.126175,137.919403 
	C174.873215,135.489090 177.914108,132.997345 181.123352,130.745544 
	C185.680084,127.548241 188.635468,128.058075 192.836914,133.072037 
	C193.180756,134.410431 193.283798,135.116364 193.386841,135.822296 
	C192.471329,138.020309 191.555801,140.218338 190.367386,142.695663 
z"/>
<path fill="#E9AA44" opacity="1.000000" stroke="none" 
	d="
M130.851410,132.144470 
	C131.829071,132.031723 132.511444,132.139175 133.537994,132.282532 
	C134.982620,132.627197 136.083069,132.935944 137.748718,133.564102 
	C141.061386,137.132706 140.987854,139.927948 136.992996,142.092178 
	C131.340942,139.635834 125.688889,137.179504 119.974548,134.375092 
	C122.451050,134.329468 125.002289,134.912125 127.522614,134.799957 
	C128.567841,134.753448 129.546967,133.221222 130.851410,132.144470 
z"/>
<path fill="#FBF8ED" opacity="1.000000" stroke="none" 
	d="
M137.032486,142.430374 
	C140.987854,139.927948 141.061386,137.132706 138.095581,133.613419 
	C138.362518,133.005783 139.103317,132.267654 139.295197,132.390060 
	C142.876190,134.674316 146.391937,137.060867 149.979523,139.785797 
	C147.096329,142.256622 144.154984,144.367630 140.986618,146.744034 
	C139.530380,145.595810 138.301178,144.182190 137.032486,142.430374 
z"/>
<path fill="#83C8B3" opacity="1.000000" stroke="none" 
	d="
M225.512665,117.665665 
	C224.659485,118.328156 223.426117,118.479126 223.344986,118.869568 
	C222.589172,122.505966 220.178940,121.578423 217.509232,121.019516 
	C216.926712,117.910355 216.700684,114.804520 216.617218,111.312836 
	C217.771164,110.630020 218.781082,110.327850 219.794357,110.037430 
	C221.044937,109.678986 222.298309,109.330299 223.931473,109.024368 
	C224.763962,111.802635 225.215454,114.533928 225.512665,117.665665 
z"/>
<path fill="#E97037" opacity="1.000000" stroke="none" 
	d="
M194.194580,113.601639 
	C192.993271,114.360321 191.205322,114.364365 190.654724,115.191795 
	C187.327682,120.191467 185.997818,117.531952 184.695389,113.885284 
	C184.563858,113.517029 183.927017,113.329247 183.160736,112.986549 
	C182.898376,112.604431 182.903915,112.179977 183.116440,112.000061 
	C185.253174,110.191238 187.423859,108.422531 189.584991,106.642540 
	C191.116577,108.837532 192.648178,111.032524 194.194580,113.601639 
z"/>
<path fill="#ECA844" opacity="1.000000" stroke="none" 
	d="
M145.803467,118.511032 
	C144.874786,121.371994 143.946106,124.232948 143.013580,127.466003 
	C142.252991,127.888428 141.496262,127.938766 140.364624,127.922791 
	C139.324753,125.213158 138.659790,122.569832 138.348648,119.541367 
	C141.069473,118.941154 143.436462,118.726089 145.803467,118.511032 
z"/>
<path fill="#EE6D3A" opacity="1.000000" stroke="none" 
	d="
M159.344193,144.940765 
	C157.119736,142.000641 158.498123,140.197937 161.363113,139.437424 
	C164.041306,138.726486 166.852020,138.514771 170.062531,138.133728 
	C166.912247,140.421326 163.303818,142.658508 159.344193,144.940765 
z"/>
<path fill="#EAAF4D" opacity="1.000000" stroke="none" 
	d="
M149.348785,85.534546 
	C149.041458,83.779305 149.165787,82.169235 149.309753,80.304817 
	C152.801529,80.265648 156.075806,79.789040 156.059052,84.965942 
	C153.987183,85.443535 151.883804,85.561630 149.348785,85.534546 
z"/>
<path fill="#EE6D3A" opacity="1.000000" stroke="none" 
	d="
M166.585205,129.895279 
	C166.319611,133.938797 159.543854,139.245819 154.208374,139.251312 
	C158.087341,136.004745 162.181168,133.023621 166.585205,129.895279 
z"/>
<path fill="#EA6E45" opacity="1.000000" stroke="none" 
	d="
M193.560669,136.123322 
	C193.283798,135.116364 193.180756,134.410431 193.061966,133.346848 
	C195.121826,133.973312 197.197433,134.957428 199.621262,135.977768 
	C198.507996,137.536957 197.046494,139.059906 195.298737,140.789001 
	C194.586487,139.471558 194.160492,137.947952 193.560669,136.123322 
z"/>
<path fill="#83C8B3" opacity="1.000000" stroke="none" 
	d="
M214.853119,134.270844 
	C220.795135,136.546173 221.239639,138.060989 217.118866,142.237396 
	C216.763916,142.386703 216.757309,142.314392 216.816147,141.900055 
	C215.848450,140.298187 214.821930,139.110641 213.795395,137.923111 
	C214.062103,136.784332 214.328812,135.645569 214.853119,134.270844 
z"/>
<path fill="#E9AA44" opacity="1.000000" stroke="none" 
	d="
M208.893005,81.584000 
	C207.560043,80.589630 206.286224,79.220963 205.010651,77.508865 
	C207.616486,77.252670 209.267944,78.272118 208.893005,81.584000 
z"/>
<path fill="#F5E9E3" opacity="1.000000" stroke="none" 
	d="
M194.949310,170.829041 
	C194.371994,169.373505 193.855011,167.518372 193.547180,165.301254 
	C194.174103,166.769333 194.591888,168.599396 194.949310,170.829041 
z"/>
<path fill="#78C5AC" opacity="1.000000" stroke="none" 
	d="
M213.583649,138.155823 
	C214.821930,139.110641 215.848450,140.298187 216.827332,141.865509 
	C215.643753,140.959732 214.507812,139.674133 213.583649,138.155823 
z"/>
<path fill="#EAAF4D" opacity="1.000000" stroke="none" 
	d="
M119.817154,144.690262 
	C118.836220,143.807114 117.968102,142.577835 117.157738,140.934235 
	C118.120316,141.794662 119.025146,143.069412 119.817154,144.690262 
z"/>
<path fill="#2E4064" opacity="1.000000" stroke="none" 
	d="
M742.341553,161.789505 
	C742.652100,160.833054 743.326721,159.916046 744.241333,159.028870 
	C743.889465,159.982132 743.297485,160.905548 742.341553,161.789505 
z"/>
<path fill="#F5E9E3" opacity="1.000000" stroke="none" 
	d="
M191.331421,148.799362 
	C190.845459,148.169144 190.591919,147.363235 190.451843,146.245850 
	C190.898148,146.830795 191.230988,147.727234 191.331421,148.799362 
z"/>
<path fill="#EA6E45" opacity="1.000000" stroke="none" 
	d="
M203.577789,134.787521 
	C202.920502,135.032486 202.284851,135.009766 201.331238,134.980087 
	C201.279999,134.358841 201.546692,133.744537 202.123444,132.971039 
	C202.822128,133.381180 203.210770,133.950500 203.577789,134.787521 
z"/>
<path fill="#F5E9E3" opacity="1.000000" stroke="none" 
	d="
M193.376404,160.781616 
	C192.901718,160.153885 192.651337,159.349930 192.520813,158.239029 
	C192.960693,158.823181 193.280716,159.714294 193.376404,160.781616 
z"/>
<path fill="#F5E9E3" opacity="1.000000" stroke="none" 
	d="
M195.736649,151.143921 
	C196.149872,151.525375 196.353745,152.036850 196.434402,152.809143 
	C196.049881,152.471283 195.788589,151.872604 195.736649,151.143921 
z"/>
<path fill="#F5E9E3" opacity="1.000000" stroke="none" 
	d="
M191.537323,154.884277 
	C191.403473,154.404083 191.452682,153.967133 191.637238,153.229340 
	C192.016953,153.525284 192.261307,154.122116 192.299988,154.843414 
	C192.094315,154.967880 191.720352,154.927521 191.537323,154.884277 
z"/>
<path fill="#2E4064" opacity="1.000000" stroke="none" 
	d="
M755.328125,154.846619 
	C755.216980,154.351929 755.490295,153.873749 755.763550,153.395569 
	C756.101685,153.732239 756.439758,154.068909 756.628479,154.599701 
	C756.223633,154.816910 755.968140,154.840012 755.328125,154.846619 
z"/>
<path fill="#F5E9E3" opacity="1.000000" stroke="none" 
	d="
M196.798981,157.115692 
	C197.183884,157.516205 197.353592,158.037552 197.381836,158.813049 
	C197.021500,158.456970 196.802628,157.846741 196.798981,157.115692 
z"/>
<path fill="#83C8B3" opacity="1.000000" stroke="none" 
	d="
M225.162933,126.839470 
	C224.854767,126.401535 224.742828,125.815521 224.873138,125.093346 
	C225.196640,125.535248 225.277908,126.113319 225.162933,126.839470 
z"/>
<path fill="#83C8B3" opacity="1.000000" stroke="none" 
	d="
M216.836426,123.213631 
	C217.092102,123.623634 217.138367,124.230270 216.976776,124.924240 
	C216.721619,124.477806 216.674332,123.944031 216.836426,123.213631 
z"/>
<path fill="#E9AA44" opacity="1.000000" stroke="none" 
	d="
M96.372070,119.248215 
	C96.819267,119.161751 97.284775,119.355835 97.883331,119.773117 
	C97.932793,120.294075 97.773804,120.543816 97.341621,120.851089 
	C96.892685,120.480667 96.641533,120.004707 96.372070,119.248215 
z"/>
<path fill="#2E4064" opacity="1.000000" stroke="none" 
	d="
M756.589111,160.211578 
	C757.051941,160.136322 757.421814,160.327637 757.892578,160.708328 
	C757.494385,160.757843 756.995300,160.617981 756.589111,160.211578 
z"/>
<path fill="#F8F9F9" opacity="1.000000" stroke="none" 
	d="
M536.889038,147.138779 
	C526.400574,146.515945 520.736816,140.215042 520.794800,129.717865 
	C520.848267,120.040695 526.768066,113.365921 535.625183,112.996132 
	C544.829834,112.611832 551.434082,118.557854 552.214355,127.931732 
	C553.116760,138.772812 547.706543,145.747574 536.889038,147.138779 
z"/>
<path fill="#F8F9F9" opacity="1.000000" stroke="none" 
	d="
M742.992310,147.083557 
	C728.386963,147.277557 720.741577,138.099533 724.209839,124.535942 
	C725.941528,117.763634 731.652100,113.134079 738.599609,112.870163 
	C746.365112,112.575172 752.068787,116.178207 754.267639,123.291901 
	C756.332092,129.971237 755.815613,136.418304 750.686890,142.542419 
	C747.827820,144.373489 745.410095,145.728531 742.992310,147.083557 
z"/>
<path fill="#2E4064" opacity="1.000000" stroke="none" 
	d="
M743.042603,147.444138 
	C745.410095,145.728531 747.827820,144.373489 750.553955,142.858704 
	C751.685120,145.432083 752.728821,148.123352 749.160095,149.931915 
	C746.250366,151.406494 744.072021,151.501083 743.042603,147.444138 
z"/>
<path fill="#F1F3F3" opacity="1.000000" stroke="none" 
	d="
M272.976135,120.908463 
	C275.929413,113.481102 278.742981,106.414932 282.068207,98.063774 
	C286.465302,108.897964 290.404175,118.603081 294.552521,128.824341 
	C286.058441,128.824341 278.193268,128.824341 269.648529,128.824341 
	C270.804932,126.083923 271.820679,123.676796 272.976135,120.908463 
z"/>
<path fill="#F7F9F8" opacity="1.000000" stroke="none" 
	d="
M665.530029,113.016167 
	C675.288513,115.845825 679.518250,122.710503 678.201477,132.944214 
	C677.108459,141.439026 671.075378,147.000732 662.849365,147.096985 
	C653.583496,147.205399 647.244751,140.763596 646.942322,130.931290 
	C646.628906,120.738853 652.495789,113.529961 661.620056,112.937019 
	C662.778198,112.861748 663.947388,112.957565 665.530029,113.016167 
z"/>
<path fill="#F1F3F3" opacity="1.000000" stroke="none" 
	d="
M453.655884,135.240814 
	C458.562836,135.207077 463.034943,135.207077 467.719543,135.207077 
	C468.956268,140.474274 467.924927,144.607361 463.438385,147.545532 
	C458.811676,150.575455 451.057373,150.983688 447.941193,147.751068 
	C446.444214,146.198151 445.445160,143.324463 445.630249,141.169983 
	C445.989471,136.989029 449.555542,135.811584 453.655884,135.240814 
z"/>
<path fill="#FCFBF6" opacity="1.000000" stroke="none" 
	d="
M146.035522,118.274712 
	C143.436462,118.726089 141.069473,118.941154 138.345261,119.155830 
	C131.502899,114.434822 130.014084,108.315544 134.265198,103.853951 
	C138.067184,99.863724 143.783920,99.600067 147.539642,103.241753 
	C151.617905,107.196175 151.094406,113.285835 146.035522,118.274712 
z"/>
</svg>